<svg width="14" height="14" viewBox="0 0 14 14" fill="none" xmlns="http://www.w3.org/2000/svg">
<g clip-path="url(#clip0_2580_2603)">
<path d="M14 7C14 3.134 10.866 0 7 0C3.134 0 0 3.134 0 7C0 10.4939 2.5598 13.3898 5.90625 13.915V9.02344H4.12891V7H5.90625V5.45781C5.90625 3.70344 6.9513 2.73438 8.55025 2.73438C9.31611 2.73438 10.1172 2.87109 10.1172 2.87109V4.59375H9.2345C8.36493 4.59375 8.09375 5.13334 8.09375 5.68691V7H10.0352L9.7248 9.02344H8.09375V13.915C11.4402 13.3898 14 10.4939 14 7Z" fill="#1877F2"/>
<path d="M9.7248 9.02344L10.0352 7H8.09375V5.68691C8.09375 5.13334 8.36493 4.59375 9.2345 4.59375H10.1172V2.87109C10.1172 2.87109 9.31611 2.73438 8.55025 2.73438C6.9513 2.73438 5.90625 3.70344 5.90625 5.45781V7H4.12891V9.02344H5.90625V13.915C6.26263 13.9709 6.62791 14 7 14C7.37209 14 7.73737 13.9709 8.09375 13.915V9.02344H9.7248Z" fill="white"/>
</g>
<defs>
<clipPath id="clip0_2580_2603">
<rect width="14" height="14" fill="white"/>
</clipPath>
</defs>
</svg>
