<svg width="14" height="14" viewBox="0 0 14 14" fill="none" xmlns="http://www.w3.org/2000/svg">
<g clip-path="url(#clip0_2580_2598)">
<path d="M11.5624 3.25954C11.5624 2.79484 11.1857 2.4196 10.7228 2.4196C10.2598 2.4196 9.88281 2.79484 9.88281 3.25954C9.88281 3.72254 10.2598 4.09776 10.7228 4.09776C11.1857 4.09776 11.5624 3.72254 11.5624 3.25954Z" fill="url(#paint0_linear_2580_2598)"/>
<path d="M12.6813 9.81588C12.6502 10.4976 12.5362 10.868 12.4415 11.114C12.3144 11.4401 12.1627 11.6734 11.9167 11.918C11.6735 12.1626 11.4402 12.3139 11.1141 12.4397C10.8681 12.5358 10.4963 12.6501 9.8146 12.6826C9.07764 12.7151 8.85927 12.722 6.9904 12.722C5.12327 12.722 4.90315 12.7151 4.16618 12.6826C3.48451 12.6501 3.11445 12.5358 2.86843 12.4397C2.54055 12.3139 2.30906 12.1626 2.06444 11.918C1.81808 11.6734 1.66641 11.4401 1.54099 11.114C1.4463 10.868 1.33057 10.4976 1.30119 9.81588C1.26527 9.07892 1.25869 8.85709 1.25869 6.99203C1.25869 5.12316 1.26527 4.90306 1.30119 4.16607C1.33057 3.4844 1.4463 3.11437 1.54099 2.86627C1.66641 2.54046 1.81808 2.30861 2.06444 2.06399C2.30906 1.81973 2.54055 1.66803 2.86843 1.5409C3.11445 1.4445 3.48451 1.33186 4.16618 1.29939C4.90315 1.26689 5.12327 1.2586 6.9904 1.2586C8.85927 1.2586 9.07764 1.26689 9.8146 1.29939C10.4963 1.33186 10.8681 1.4445 11.1141 1.5409C11.4402 1.66803 11.6735 1.81973 11.9167 2.06399C12.1627 2.30861 12.3144 2.54046 12.4415 2.86627C12.5362 3.11437 12.6502 3.4844 12.6813 4.16607C12.7155 4.90306 12.7238 5.12316 12.7238 6.99203C12.7238 8.85709 12.7155 9.07892 12.6813 9.81588ZM13.94 4.10873C13.9058 3.3638 13.7883 2.85487 13.6138 2.41159C13.4363 1.9517 13.1982 1.56197 12.8085 1.17223C12.4205 0.78423 12.0307 0.546164 11.5708 0.366505C11.1258 0.193741 10.6186 0.0748761 9.87333 0.0424069C9.12805 0.00646492 8.89003 -9.15527e-05 6.9904 -9.15527e-05C5.09249 -9.15527e-05 4.85273 0.00646492 4.10745 0.0424069C3.36391 0.0748761 2.85702 0.193741 2.40995 0.366505C1.9518 0.546164 1.56206 0.78423 1.17406 1.17223C0.78432 1.56197 0.546254 1.9517 0.366934 2.41159C0.194169 2.85487 0.0767035 3.3638 0.0407618 4.10873C0.00829227 4.85401 0 5.0924 0 6.99203C0 8.88994 0.00829227 9.12797 0.0407618 9.87325C0.0767035 10.6168 0.194169 11.1254 0.366934 11.5708C0.546254 12.0289 0.78432 12.4204 1.17406 12.8084C1.56206 13.1964 1.9518 13.4362 2.40995 13.6155C2.85702 13.7882 3.36391 13.9057 4.10745 13.9399C4.85273 13.9741 5.09249 13.9824 6.9904 13.9824C8.89003 13.9824 9.12805 13.9741 9.87333 13.9399C10.6186 13.9057 11.1258 13.7882 11.5708 13.6155C12.0307 13.4362 12.4205 13.1964 12.8085 12.8084C13.1982 12.4204 13.4363 12.0289 13.6138 11.5708C13.7883 11.1254 13.9058 10.6168 13.94 9.87325C13.9742 9.12797 13.9825 8.88994 13.9825 6.99203C13.9825 5.0924 13.9742 4.85401 13.94 4.10873Z" fill="url(#paint1_linear_2580_2598)"/>
<path d="M6.99019 9.32052C5.70384 9.32052 4.66006 8.27843 4.66006 6.99208C4.66006 5.70367 5.70384 4.66025 6.99019 4.66025C8.27691 4.66025 9.32206 5.70367 9.32206 6.99208C9.32206 8.27843 8.27691 9.32052 6.99019 9.32052ZM6.99019 3.39983C5.0073 3.39983 3.40137 5.0092 3.40137 6.99208C3.40137 8.97327 5.0073 10.5809 6.99019 10.5809C8.97308 10.5809 10.5807 8.97327 10.5807 6.99208C10.5807 5.0092 8.97308 3.39983 6.99019 3.39983Z" fill="url(#paint2_linear_2580_2598)"/>
</g>
<defs>
<linearGradient id="paint0_linear_2580_2598" x1="0.12592" y1="13.8379" x2="12.8177" y2="1.14617" gradientUnits="userSpaceOnUse">
<stop stop-color="#FFD521"/>
<stop offset="0.05" stop-color="#FFD521"/>
<stop offset="0.501119" stop-color="#F50000"/>
<stop offset="0.95" stop-color="#B900B4"/>
<stop offset="0.950079" stop-color="#B900B4"/>
<stop offset="1" stop-color="#B900B4"/>
</linearGradient>
<linearGradient id="paint1_linear_2580_2598" x1="0.12612" y1="13.8553" x2="12.8284" y2="1.15306" gradientUnits="userSpaceOnUse">
<stop stop-color="#FFD521"/>
<stop offset="0.05" stop-color="#FFD521"/>
<stop offset="0.501119" stop-color="#F50000"/>
<stop offset="0.95" stop-color="#B900B4"/>
<stop offset="0.950079" stop-color="#B900B4"/>
<stop offset="1" stop-color="#B900B4"/>
</linearGradient>
<linearGradient id="paint2_linear_2580_2598" x1="0.129212" y1="13.8557" x2="12.8284" y2="1.15652" gradientUnits="userSpaceOnUse">
<stop stop-color="#FFD521"/>
<stop offset="0.05" stop-color="#FFD521"/>
<stop offset="0.501119" stop-color="#F50000"/>
<stop offset="0.95" stop-color="#B900B4"/>
<stop offset="0.950079" stop-color="#B900B4"/>
<stop offset="1" stop-color="#B900B4"/>
</linearGradient>
<clipPath id="clip0_2580_2598">
<rect width="14" height="14" fill="white"/>
</clipPath>
</defs>
</svg>
