<svg width="14" height="14" viewBox="0 0 14 14" fill="none" xmlns="http://www.w3.org/2000/svg">
<path d="M11.9287 11.8802H9.8543V8.6637C9.8543 7.89668 9.84048 6.9093 8.77542 6.9093C7.69502 6.9093 7.52972 7.74499 7.52972 8.60786V11.88H5.45535V5.26551H7.44674V6.16945H7.47462C7.67391 5.83206 7.96189 5.55451 8.30789 5.36635C8.65389 5.17819 9.04496 5.08648 9.43943 5.10098C11.5419 5.10098 11.9295 6.47027 11.9295 8.25163L11.9287 11.8802ZM3.11478 4.36135C2.8767 4.36139 2.64394 4.29153 2.44596 4.16059C2.24797 4.02966 2.09366 3.84353 2.00251 3.62575C1.91136 3.40797 1.88747 3.16832 1.93388 2.9371C1.98028 2.70589 2.0949 2.49349 2.26322 2.32676C2.43154 2.16004 2.64601 2.04648 2.87951 2.00045C3.11302 1.95442 3.35505 1.97798 3.57503 2.06815C3.79501 2.15833 3.98304 2.31106 4.11535 2.50705C4.24766 2.70304 4.3183 2.93347 4.31835 3.16921C4.31838 3.32574 4.28726 3.48074 4.22679 3.62536C4.16632 3.76998 4.07769 3.90139 3.96592 4.01209C3.85416 4.12279 3.72147 4.21061 3.57543 4.27054C3.42939 4.33046 3.27286 4.36132 3.11478 4.36135ZM4.15196 11.8802H2.07544V5.26551H4.15196V11.8802ZM12.9628 0.0701278H1.03308C0.762306 0.0671022 0.501385 0.170641 0.307673 0.357992C0.113961 0.545343 0.00330462 0.801178 0 1.06928V12.9305C0.00319152 13.1988 0.113783 13.4548 0.307489 13.6423C0.501194 13.8299 0.762172 13.9336 1.03308 13.9308H12.9628C13.2343 13.9341 13.496 13.8307 13.6904 13.6431C13.8849 13.4556 13.9962 13.1993 14 12.9305V1.06842C13.9961 0.799791 13.8847 0.543665 13.6902 0.356318C13.4958 0.168972 13.2341 0.0657287 12.9628 0.0692716" fill="#0A66C2"/>
</svg>
