<svg width="12" height="12" viewBox="0 0 12 12" fill="none" xmlns="http://www.w3.org/2000/svg">
<path d="M5.67357 0.945801C3.06357 0.945801 0.945312 3.06406 0.945312 5.67406C0.945312 8.28406 3.06357 10.4023 5.67357 10.4023C8.28357 10.4023 10.4018 8.28406 10.4018 5.67406C10.4018 3.06406 8.28357 0.945801 5.67357 0.945801ZM7.57906 5.92466L6.16058 7.34314C6.08966 7.41406 5.99982 7.44716 5.90999 7.44716C5.82015 7.44716 5.73031 7.41406 5.65939 7.34314C5.52227 7.20602 5.52227 6.97906 5.65939 6.84194L6.47265 6.02868H4.01868C3.82482 6.02868 3.66406 5.86792 3.66406 5.67406C3.66406 5.4802 3.82482 5.31944 4.01868 5.31944H6.47265L5.65939 4.50618C5.52227 4.36906 5.52227 4.14211 5.65939 4.00499C5.79651 3.86787 6.02346 3.86787 6.16058 4.00499L7.57906 5.42346C7.71618 5.56058 7.71618 5.78754 7.57906 5.92466Z" fill="#616161"/>
<path d="M5.67357 0.945801C3.06357 0.945801 0.945312 3.06406 0.945312 5.67406C0.945312 8.28406 3.06357 10.4023 5.67357 10.4023C8.28357 10.4023 10.4018 8.28406 10.4018 5.67406C10.4018 3.06406 8.28357 0.945801 5.67357 0.945801ZM7.57906 5.92466L6.16058 7.34314C6.08966 7.41406 5.99982 7.44716 5.90999 7.44716C5.82015 7.44716 5.73031 7.41406 5.65939 7.34314C5.52227 7.20602 5.52227 6.97906 5.65939 6.84194L6.47265 6.02868H4.01868C3.82482 6.02868 3.66406 5.86792 3.66406 5.67406C3.66406 5.4802 3.82482 5.31944 4.01868 5.31944H6.47265L5.65939 4.50618C5.52227 4.36906 5.52227 4.14211 5.65939 4.00499C5.79651 3.86787 6.02346 3.86787 6.16058 4.00499L7.57906 5.42346C7.71618 5.56058 7.71618 5.78754 7.57906 5.92466Z" fill="black" fill-opacity="0.2"/>
<path d="M5.67357 0.945801C3.06357 0.945801 0.945312 3.06406 0.945312 5.67406C0.945312 8.28406 3.06357 10.4023 5.67357 10.4023C8.28357 10.4023 10.4018 8.28406 10.4018 5.67406C10.4018 3.06406 8.28357 0.945801 5.67357 0.945801ZM7.57906 5.92466L6.16058 7.34314C6.08966 7.41406 5.99982 7.44716 5.90999 7.44716C5.82015 7.44716 5.73031 7.41406 5.65939 7.34314C5.52227 7.20602 5.52227 6.97906 5.65939 6.84194L6.47265 6.02868H4.01868C3.82482 6.02868 3.66406 5.86792 3.66406 5.67406C3.66406 5.4802 3.82482 5.31944 4.01868 5.31944H6.47265L5.65939 4.50618C5.52227 4.36906 5.52227 4.14211 5.65939 4.00499C5.79651 3.86787 6.02346 3.86787 6.16058 4.00499L7.57906 5.42346C7.71618 5.56058 7.71618 5.78754 7.57906 5.92466Z" fill="black" fill-opacity="0.2"/>
<path d="M5.67357 0.945801C3.06357 0.945801 0.945312 3.06406 0.945312 5.67406C0.945312 8.28406 3.06357 10.4023 5.67357 10.4023C8.28357 10.4023 10.4018 8.28406 10.4018 5.67406C10.4018 3.06406 8.28357 0.945801 5.67357 0.945801ZM7.57906 5.92466L6.16058 7.34314C6.08966 7.41406 5.99982 7.44716 5.90999 7.44716C5.82015 7.44716 5.73031 7.41406 5.65939 7.34314C5.52227 7.20602 5.52227 6.97906 5.65939 6.84194L6.47265 6.02868H4.01868C3.82482 6.02868 3.66406 5.86792 3.66406 5.67406C3.66406 5.4802 3.82482 5.31944 4.01868 5.31944H6.47265L5.65939 4.50618C5.52227 4.36906 5.52227 4.14211 5.65939 4.00499C5.79651 3.86787 6.02346 3.86787 6.16058 4.00499L7.57906 5.42346C7.71618 5.56058 7.71618 5.78754 7.57906 5.92466Z" fill="black" fill-opacity="0.2"/>
<path d="M5.67357 0.945801C3.06357 0.945801 0.945312 3.06406 0.945312 5.67406C0.945312 8.28406 3.06357 10.4023 5.67357 10.4023C8.28357 10.4023 10.4018 8.28406 10.4018 5.67406C10.4018 3.06406 8.28357 0.945801 5.67357 0.945801ZM7.57906 5.92466L6.16058 7.34314C6.08966 7.41406 5.99982 7.44716 5.90999 7.44716C5.82015 7.44716 5.73031 7.41406 5.65939 7.34314C5.52227 7.20602 5.52227 6.97906 5.65939 6.84194L6.47265 6.02868H4.01868C3.82482 6.02868 3.66406 5.86792 3.66406 5.67406C3.66406 5.4802 3.82482 5.31944 4.01868 5.31944H6.47265L5.65939 4.50618C5.52227 4.36906 5.52227 4.14211 5.65939 4.00499C5.79651 3.86787 6.02346 3.86787 6.16058 4.00499L7.57906 5.42346C7.71618 5.56058 7.71618 5.78754 7.57906 5.92466Z" fill="black" fill-opacity="0.2"/>
</svg>
