<svg width="12" height="12" viewBox="0 0 12 12" fill="none" xmlns="http://www.w3.org/2000/svg">
<path d="M5.67357 0.945801C3.06357 0.945801 0.945312 3.06406 0.945312 5.67406C0.945312 8.28406 3.06357 10.4023 5.67357 10.4023C8.28357 10.4023 10.4018 8.28406 10.4018 5.67406C10.4018 3.06406 8.28357 0.945801 5.67357 0.945801ZM7.32846 6.02868H4.8745L5.68776 6.84194C5.82488 6.97906 5.82488 7.20602 5.68776 7.34314C5.61683 7.41406 5.527 7.44716 5.43716 7.44716C5.34732 7.44716 5.25749 7.41406 5.18656 7.34314L3.76808 5.92466C3.63096 5.78754 3.63096 5.56058 3.76808 5.42346L5.18656 4.00499C5.32368 3.86787 5.55064 3.86787 5.68776 4.00499C5.82488 4.14211 5.82488 4.36906 5.68776 4.50618L4.8745 5.31944H7.32846C7.52232 5.31944 7.68308 5.4802 7.68308 5.67406C7.68308 5.86792 7.52232 6.02868 7.32846 6.02868Z" fill="#616161"/>
<path d="M5.67357 0.945801C3.06357 0.945801 0.945312 3.06406 0.945312 5.67406C0.945312 8.28406 3.06357 10.4023 5.67357 10.4023C8.28357 10.4023 10.4018 8.28406 10.4018 5.67406C10.4018 3.06406 8.28357 0.945801 5.67357 0.945801ZM7.32846 6.02868H4.8745L5.68776 6.84194C5.82488 6.97906 5.82488 7.20602 5.68776 7.34314C5.61683 7.41406 5.527 7.44716 5.43716 7.44716C5.34732 7.44716 5.25749 7.41406 5.18656 7.34314L3.76808 5.92466C3.63096 5.78754 3.63096 5.56058 3.76808 5.42346L5.18656 4.00499C5.32368 3.86787 5.55064 3.86787 5.68776 4.00499C5.82488 4.14211 5.82488 4.36906 5.68776 4.50618L4.8745 5.31944H7.32846C7.52232 5.31944 7.68308 5.4802 7.68308 5.67406C7.68308 5.86792 7.52232 6.02868 7.32846 6.02868Z" fill="black" fill-opacity="0.2"/>
<path d="M5.67357 0.945801C3.06357 0.945801 0.945312 3.06406 0.945312 5.67406C0.945312 8.28406 3.06357 10.4023 5.67357 10.4023C8.28357 10.4023 10.4018 8.28406 10.4018 5.67406C10.4018 3.06406 8.28357 0.945801 5.67357 0.945801ZM7.32846 6.02868H4.8745L5.68776 6.84194C5.82488 6.97906 5.82488 7.20602 5.68776 7.34314C5.61683 7.41406 5.527 7.44716 5.43716 7.44716C5.34732 7.44716 5.25749 7.41406 5.18656 7.34314L3.76808 5.92466C3.63096 5.78754 3.63096 5.56058 3.76808 5.42346L5.18656 4.00499C5.32368 3.86787 5.55064 3.86787 5.68776 4.00499C5.82488 4.14211 5.82488 4.36906 5.68776 4.50618L4.8745 5.31944H7.32846C7.52232 5.31944 7.68308 5.4802 7.68308 5.67406C7.68308 5.86792 7.52232 6.02868 7.32846 6.02868Z" fill="black" fill-opacity="0.2"/>
<path d="M5.67357 0.945801C3.06357 0.945801 0.945312 3.06406 0.945312 5.67406C0.945312 8.28406 3.06357 10.4023 5.67357 10.4023C8.28357 10.4023 10.4018 8.28406 10.4018 5.67406C10.4018 3.06406 8.28357 0.945801 5.67357 0.945801ZM7.32846 6.02868H4.8745L5.68776 6.84194C5.82488 6.97906 5.82488 7.20602 5.68776 7.34314C5.61683 7.41406 5.527 7.44716 5.43716 7.44716C5.34732 7.44716 5.25749 7.41406 5.18656 7.34314L3.76808 5.92466C3.63096 5.78754 3.63096 5.56058 3.76808 5.42346L5.18656 4.00499C5.32368 3.86787 5.55064 3.86787 5.68776 4.00499C5.82488 4.14211 5.82488 4.36906 5.68776 4.50618L4.8745 5.31944H7.32846C7.52232 5.31944 7.68308 5.4802 7.68308 5.67406C7.68308 5.86792 7.52232 6.02868 7.32846 6.02868Z" fill="black" fill-opacity="0.2"/>
<path d="M5.67357 0.945801C3.06357 0.945801 0.945312 3.06406 0.945312 5.67406C0.945312 8.28406 3.06357 10.4023 5.67357 10.4023C8.28357 10.4023 10.4018 8.28406 10.4018 5.67406C10.4018 3.06406 8.28357 0.945801 5.67357 0.945801ZM7.32846 6.02868H4.8745L5.68776 6.84194C5.82488 6.97906 5.82488 7.20602 5.68776 7.34314C5.61683 7.41406 5.527 7.44716 5.43716 7.44716C5.34732 7.44716 5.25749 7.41406 5.18656 7.34314L3.76808 5.92466C3.63096 5.78754 3.63096 5.56058 3.76808 5.42346L5.18656 4.00499C5.32368 3.86787 5.55064 3.86787 5.68776 4.00499C5.82488 4.14211 5.82488 4.36906 5.68776 4.50618L4.8745 5.31944H7.32846C7.52232 5.31944 7.68308 5.4802 7.68308 5.67406C7.68308 5.86792 7.52232 6.02868 7.32846 6.02868Z" fill="black" fill-opacity="0.2"/>
</svg>
