<svg width="25" height="25" viewBox="0 0 25 25" fill="none" xmlns="http://www.w3.org/2000/svg">
<path d="M23.06 12.9249C23.06 12.1449 22.99 11.3949 22.86 10.6749H12.5V14.9299H18.42C18.165 16.3049 17.39 17.4699 16.225 18.2499V21.0099H19.78C21.86 19.0949 23.06 16.2749 23.06 12.9249Z" fill="#4285F4"/>
<path d="M12.5 23.6749C15.47 23.6749 17.96 22.6899 19.78 21.0099L16.225 18.2499C15.24 18.9099 13.98 19.2999 12.5 19.2999C9.63498 19.2999 7.20998 17.3649 6.34498 14.7649H2.66998V17.6149C4.47998 21.2099 8.19998 23.6749 12.5 23.6749Z" fill="#34A853"/>
<path d="M6.345 14.7649C6.125 14.1049 6 13.3999 6 12.6749C6 11.9499 6.125 11.2449 6.345 10.5849V7.73489H2.67C1.9 9.26775 1.49932 10.9595 1.5 12.6749C1.5 14.4499 1.925 16.1299 2.67 17.6149L6.345 14.7649Z" fill="#FBBC05"/>
<path d="M12.5 6.0499C14.115 6.0499 15.565 6.6049 16.705 7.6949L19.86 4.5399C17.955 2.7649 15.465 1.6749 12.5 1.6749C8.19998 1.6749 4.47998 4.1399 2.66998 7.7349L6.34498 10.5849C7.20998 7.9849 9.63498 6.0499 12.5 6.0499Z" fill="#EA4335"/>
</svg>
