<svg width="50" height="31" viewBox="0 0 50 31" fill="none" xmlns="http://www.w3.org/2000/svg">
<g clip-path="url(#clip0_3482_2330)">
<path d="M43.1888 0.0895676H22.6789C22.3706 0.096837 22.0714 0.195785 21.8195 0.373791C21.5677 0.551796 21.3745 0.80079 21.2648 1.08901L12.8971 23.3319L10.9939 28.5418C10.9106 28.7756 10.8846 29.0259 10.918 29.2719C10.9514 29.5178 11.0433 29.7521 11.186 29.9552C11.3287 30.1583 11.518 30.3242 11.738 30.439C11.958 30.5538 12.2024 30.6142 12.4505 30.6151H17.384C17.7008 30.6156 18.0102 30.519 18.2706 30.3384C18.531 30.1579 18.7299 29.902 18.8406 29.605L20.9671 23.7891L26.581 8.81875C26.6902 8.52381 26.8875 8.26966 27.1463 8.09084C27.405 7.91202 27.7125 7.81721 28.027 7.81931H37.7875C38.1094 7.8234 38.4219 7.92813 38.6812 8.11881C38.9405 8.30949 39.1336 8.57655 39.2335 8.88254L41.4663 14.8367C41.5854 15.1811 41.5854 15.5555 41.4663 15.8999L39.2335 21.8753C39.1317 22.1821 38.9366 22.4495 38.6754 22.6401C38.4143 22.8308 38.1002 22.9351 37.7769 22.9385H34.1938C33.9391 22.9409 33.6877 22.8806 33.4619 22.7629C33.236 22.6451 33.0426 22.4737 32.8987 22.2635C32.7547 22.0534 32.6647 21.8111 32.6365 21.558C32.6084 21.3049 32.6429 21.0487 32.7371 20.8121L34.215 16.7611C34.3006 16.5282 34.3287 16.2781 34.2969 16.032C34.2651 15.7859 34.1744 15.5511 34.0324 15.3476C33.8905 15.1441 33.7015 14.9778 33.4815 14.8629C33.2616 14.7481 33.0172 14.688 32.769 14.6878H27.825C27.5027 14.6903 27.1895 14.7944 26.9298 14.9853C26.6702 15.1762 26.4774 15.4442 26.379 15.7511L21.7007 28.5843C21.6174 28.8181 21.5914 29.0685 21.6248 29.3144C21.6582 29.5603 21.7501 29.7946 21.8928 29.9977C22.0355 30.2008 22.2248 30.3667 22.4448 30.4815C22.6648 30.5964 22.9092 30.6567 23.1574 30.6577H43.1888C43.5126 30.6571 43.8281 30.5554 44.0912 30.3667C44.3543 30.1779 44.5518 29.9116 44.656 29.605L49.7489 15.5916V15.4746V15.2407L44.656 1.15281C44.5564 0.842494 44.3605 0.572051 44.0966 0.380823C43.8327 0.189596 43.5146 0.0875623 43.1888 0.0895676Z" fill="#FE581C"/>
<path d="M3.7189e-09 29.8602C3.7189e-09 30.0576 0.0784136 30.2469 0.217991 30.3865C0.357568 30.5261 0.546875 30.6045 0.744266 30.6045H7.51709C7.60471 30.6057 7.69055 30.5797 7.76287 30.5302C7.83519 30.4808 7.89046 30.4101 7.92112 30.3281L10.1965 24.0975C10.2371 23.9842 10.2502 23.8629 10.2344 23.7435C10.2187 23.6242 10.1746 23.5104 10.106 23.4115C10.0373 23.3127 9.94599 23.2317 9.83966 23.1753C9.73333 23.1189 9.61506 23.0888 9.49471 23.0874H0.744266C0.545903 23.0902 0.356612 23.171 0.217332 23.3122C0.0780529 23.4535 -1.96742e-05 23.6439 3.7189e-09 23.8423V29.8602Z" fill="#FE581C"/>
<path d="M0.871855 18.7281H11.5999C11.7775 18.7288 11.9511 18.6752 12.0974 18.5744C12.2437 18.4737 12.3558 18.3307 12.4186 18.1646L14.3005 13.1461C14.3484 13.0145 14.3638 12.8733 14.3455 12.7344C14.3272 12.5956 14.2757 12.4632 14.1953 12.3484C14.115 12.2337 14.0083 12.14 13.8841 12.0753C13.7599 12.0105 13.6219 11.9767 13.4819 11.9766H0.871855C0.640625 11.9766 0.418865 12.0684 0.25536 12.2319C0.0918559 12.3954 0 12.6172 0 12.8484L0 17.8775C0.00555103 18.1051 0.0998517 18.3214 0.262758 18.4803C0.425665 18.6393 0.644262 18.7282 0.871855 18.7281Z" fill="#FE581C"/>
<path d="M18.075 0.0896767H0.744266C0.546875 0.0896767 0.357568 0.16809 0.217991 0.307667C0.0784136 0.447244 0 0.636551 0 0.833943L0 6.8625C0 6.96024 0.019251 7.05702 0.0566539 7.14732C0.0940568 7.23762 0.148879 7.31967 0.217991 7.38878C0.287102 7.45789 0.369149 7.51271 0.459448 7.55011C0.549747 7.58752 0.646528 7.60677 0.744266 7.60677H15.8635C16.0151 7.60665 16.163 7.55956 16.2867 7.47198C16.4105 7.3844 16.5041 7.26062 16.5546 7.11768L18.8193 1.15291C18.8731 1.0336 18.895 0.902348 18.8828 0.772029C18.8706 0.641711 18.8247 0.516808 18.7496 0.409578C18.6746 0.302349 18.5729 0.216479 18.4547 0.160395C18.3364 0.104311 18.2056 0.0799412 18.075 0.0896767Z" fill="#FE581C"/>
</g>
<defs>
<clipPath id="clip0_3482_2330">
<rect width="49.7808" height="30.5256" fill="white" transform="translate(0 0.0895386)"/>
</clipPath>
</defs>
</svg>
