<svg width="21" height="20" viewBox="0 0 21 20" fill="none" xmlns="http://www.w3.org/2000/svg">
<path d="M3.39809 15.8583C3.13575 15.8583 2.916 15.765 2.73883 15.5783C2.56106 15.3923 2.47217 15.1616 2.47217 14.8861C2.47217 14.6106 2.56106 14.3799 2.73883 14.1939C2.916 14.0072 3.13575 13.9139 3.39809 13.9139H18.2129C18.4753 13.9139 18.695 14.0072 18.8722 14.1939C19.0499 14.3799 19.1388 14.6106 19.1388 14.8861C19.1388 15.1616 19.0499 15.3923 18.8722 15.5783C18.695 15.765 18.4753 15.8583 18.2129 15.8583H3.39809ZM3.39809 10.9972C3.13575 10.9972 2.916 10.9039 2.73883 10.7172C2.56106 10.5312 2.47217 10.3004 2.47217 10.025C2.47217 9.74952 2.56106 9.51846 2.73883 9.33179C2.916 9.14577 3.13575 9.05276 3.39809 9.05276H18.2129C18.4753 9.05276 18.695 9.14577 18.8722 9.33179C19.0499 9.51846 19.1388 9.74952 19.1388 10.025C19.1388 10.3004 19.0499 10.5312 18.8722 10.7172C18.695 10.9039 18.4753 10.9972 18.2129 10.9972H3.39809ZM3.39809 6.13609C3.13575 6.13609 2.916 6.04309 2.73883 5.85707C2.56106 5.6704 2.47217 5.43934 2.47217 5.16387C2.47217 4.88841 2.56106 4.65734 2.73883 4.47068C2.916 4.28466 3.13575 4.19165 3.39809 4.19165H18.2129C18.4753 4.19165 18.695 4.28466 18.8722 4.47068C19.0499 4.65734 19.1388 4.88841 19.1388 5.16387C19.1388 5.43934 19.0499 5.6704 18.8722 5.85707C18.695 6.04309 18.4753 6.13609 18.2129 6.13609H3.39809Z" fill="#616161"/>
<path d="M3.39809 15.8583C3.13575 15.8583 2.916 15.765 2.73883 15.5783C2.56106 15.3923 2.47217 15.1616 2.47217 14.8861C2.47217 14.6106 2.56106 14.3799 2.73883 14.1939C2.916 14.0072 3.13575 13.9139 3.39809 13.9139H18.2129C18.4753 13.9139 18.695 14.0072 18.8722 14.1939C19.0499 14.3799 19.1388 14.6106 19.1388 14.8861C19.1388 15.1616 19.0499 15.3923 18.8722 15.5783C18.695 15.765 18.4753 15.8583 18.2129 15.8583H3.39809ZM3.39809 10.9972C3.13575 10.9972 2.916 10.9039 2.73883 10.7172C2.56106 10.5312 2.47217 10.3004 2.47217 10.025C2.47217 9.74952 2.56106 9.51846 2.73883 9.33179C2.916 9.14577 3.13575 9.05276 3.39809 9.05276H18.2129C18.4753 9.05276 18.695 9.14577 18.8722 9.33179C19.0499 9.51846 19.1388 9.74952 19.1388 10.025C19.1388 10.3004 19.0499 10.5312 18.8722 10.7172C18.695 10.9039 18.4753 10.9972 18.2129 10.9972H3.39809ZM3.39809 6.13609C3.13575 6.13609 2.916 6.04309 2.73883 5.85707C2.56106 5.6704 2.47217 5.43934 2.47217 5.16387C2.47217 4.88841 2.56106 4.65734 2.73883 4.47068C2.916 4.28466 3.13575 4.19165 3.39809 4.19165H18.2129C18.4753 4.19165 18.695 4.28466 18.8722 4.47068C19.0499 4.65734 19.1388 4.88841 19.1388 5.16387C19.1388 5.43934 19.0499 5.6704 18.8722 5.85707C18.695 6.04309 18.4753 6.13609 18.2129 6.13609H3.39809Z" fill="black" fill-opacity="0.2"/>
<path d="M3.39809 15.8583C3.13575 15.8583 2.916 15.765 2.73883 15.5783C2.56106 15.3923 2.47217 15.1616 2.47217 14.8861C2.47217 14.6106 2.56106 14.3799 2.73883 14.1939C2.916 14.0072 3.13575 13.9139 3.39809 13.9139H18.2129C18.4753 13.9139 18.695 14.0072 18.8722 14.1939C19.0499 14.3799 19.1388 14.6106 19.1388 14.8861C19.1388 15.1616 19.0499 15.3923 18.8722 15.5783C18.695 15.765 18.4753 15.8583 18.2129 15.8583H3.39809ZM3.39809 10.9972C3.13575 10.9972 2.916 10.9039 2.73883 10.7172C2.56106 10.5312 2.47217 10.3004 2.47217 10.025C2.47217 9.74952 2.56106 9.51846 2.73883 9.33179C2.916 9.14577 3.13575 9.05276 3.39809 9.05276H18.2129C18.4753 9.05276 18.695 9.14577 18.8722 9.33179C19.0499 9.51846 19.1388 9.74952 19.1388 10.025C19.1388 10.3004 19.0499 10.5312 18.8722 10.7172C18.695 10.9039 18.4753 10.9972 18.2129 10.9972H3.39809ZM3.39809 6.13609C3.13575 6.13609 2.916 6.04309 2.73883 5.85707C2.56106 5.6704 2.47217 5.43934 2.47217 5.16387C2.47217 4.88841 2.56106 4.65734 2.73883 4.47068C2.916 4.28466 3.13575 4.19165 3.39809 4.19165H18.2129C18.4753 4.19165 18.695 4.28466 18.8722 4.47068C19.0499 4.65734 19.1388 4.88841 19.1388 5.16387C19.1388 5.43934 19.0499 5.6704 18.8722 5.85707C18.695 6.04309 18.4753 6.13609 18.2129 6.13609H3.39809Z" fill="black" fill-opacity="0.2"/>
<path d="M3.39809 15.8583C3.13575 15.8583 2.916 15.765 2.73883 15.5783C2.56106 15.3923 2.47217 15.1616 2.47217 14.8861C2.47217 14.6106 2.56106 14.3799 2.73883 14.1939C2.916 14.0072 3.13575 13.9139 3.39809 13.9139H18.2129C18.4753 13.9139 18.695 14.0072 18.8722 14.1939C19.0499 14.3799 19.1388 14.6106 19.1388 14.8861C19.1388 15.1616 19.0499 15.3923 18.8722 15.5783C18.695 15.765 18.4753 15.8583 18.2129 15.8583H3.39809ZM3.39809 10.9972C3.13575 10.9972 2.916 10.9039 2.73883 10.7172C2.56106 10.5312 2.47217 10.3004 2.47217 10.025C2.47217 9.74952 2.56106 9.51846 2.73883 9.33179C2.916 9.14577 3.13575 9.05276 3.39809 9.05276H18.2129C18.4753 9.05276 18.695 9.14577 18.8722 9.33179C19.0499 9.51846 19.1388 9.74952 19.1388 10.025C19.1388 10.3004 19.0499 10.5312 18.8722 10.7172C18.695 10.9039 18.4753 10.9972 18.2129 10.9972H3.39809ZM3.39809 6.13609C3.13575 6.13609 2.916 6.04309 2.73883 5.85707C2.56106 5.6704 2.47217 5.43934 2.47217 5.16387C2.47217 4.88841 2.56106 4.65734 2.73883 4.47068C2.916 4.28466 3.13575 4.19165 3.39809 4.19165H18.2129C18.4753 4.19165 18.695 4.28466 18.8722 4.47068C19.0499 4.65734 19.1388 4.88841 19.1388 5.16387C19.1388 5.43934 19.0499 5.6704 18.8722 5.85707C18.695 6.04309 18.4753 6.13609 18.2129 6.13609H3.39809Z" fill="black" fill-opacity="0.2"/>
<path d="M3.39809 15.8583C3.13575 15.8583 2.916 15.765 2.73883 15.5783C2.56106 15.3923 2.47217 15.1616 2.47217 14.8861C2.47217 14.6106 2.56106 14.3799 2.73883 14.1939C2.916 14.0072 3.13575 13.9139 3.39809 13.9139H18.2129C18.4753 13.9139 18.695 14.0072 18.8722 14.1939C19.0499 14.3799 19.1388 14.6106 19.1388 14.8861C19.1388 15.1616 19.0499 15.3923 18.8722 15.5783C18.695 15.765 18.4753 15.8583 18.2129 15.8583H3.39809ZM3.39809 10.9972C3.13575 10.9972 2.916 10.9039 2.73883 10.7172C2.56106 10.5312 2.47217 10.3004 2.47217 10.025C2.47217 9.74952 2.56106 9.51846 2.73883 9.33179C2.916 9.14577 3.13575 9.05276 3.39809 9.05276H18.2129C18.4753 9.05276 18.695 9.14577 18.8722 9.33179C19.0499 9.51846 19.1388 9.74952 19.1388 10.025C19.1388 10.3004 19.0499 10.5312 18.8722 10.7172C18.695 10.9039 18.4753 10.9972 18.2129 10.9972H3.39809ZM3.39809 6.13609C3.13575 6.13609 2.916 6.04309 2.73883 5.85707C2.56106 5.6704 2.47217 5.43934 2.47217 5.16387C2.47217 4.88841 2.56106 4.65734 2.73883 4.47068C2.916 4.28466 3.13575 4.19165 3.39809 4.19165H18.2129C18.4753 4.19165 18.695 4.28466 18.8722 4.47068C19.0499 4.65734 19.1388 4.88841 19.1388 5.16387C19.1388 5.43934 19.0499 5.6704 18.8722 5.85707C18.695 6.04309 18.4753 6.13609 18.2129 6.13609H3.39809Z" fill="black" fill-opacity="0.2"/>
</svg>
