<svg width="36" height="36" viewBox="0 0 36 36" fill="none" xmlns="http://www.w3.org/2000/svg">
<path d="M30.2848 21.0897L28.5898 18.2697C28.2148 17.6547 27.8848 16.4697 27.8848 15.7497V12.9447C27.8848 7.49971 23.4598 3.07471 18.0298 3.07471C12.5848 3.08971 8.15982 7.49971 8.15982 12.9447V15.7347C8.15982 16.4547 7.82982 17.6397 7.46982 18.2547L5.77482 21.0747C5.12982 22.1697 4.97982 23.4147 5.38482 24.4947C5.78982 25.5897 6.70482 26.4597 7.90482 26.8497C9.52482 27.3897 11.1598 27.7797 12.8248 28.0647C12.9898 28.0947 13.1548 28.1097 13.3198 28.1397C13.5298 28.1697 13.7548 28.1997 13.9798 28.2297C14.3698 28.2897 14.7598 28.3347 15.1648 28.3647C16.1098 28.4547 17.0698 28.4997 18.0298 28.4997C18.9748 28.4997 19.9198 28.4547 20.8498 28.3647C21.1948 28.3347 21.5398 28.3047 21.8698 28.2597C22.1398 28.2297 22.4098 28.1997 22.6798 28.1547C22.8448 28.1397 23.0098 28.1097 23.1748 28.0797C24.8548 27.8097 26.5198 27.3897 28.1398 26.8497C29.2948 26.4597 30.1798 25.5897 30.5998 24.4797C31.0198 23.3547 30.8998 22.1247 30.2848 21.0897ZM19.1248 14.9997C19.1248 15.6297 18.6148 16.1397 17.9848 16.1397C17.3548 16.1397 16.8448 15.6297 16.8448 14.9997V10.3497C16.8448 9.71971 17.3548 9.20971 17.9848 9.20971C18.6148 9.20971 19.1248 9.71971 19.1248 10.3497V14.9997Z" fill="#808080"/>
<path d="M22.2445 30.015C21.6145 31.755 19.9495 33 17.9995 33C16.8145 33 15.6445 32.52 14.8195 31.665C14.3395 31.215 13.9795 30.615 13.7695 30C13.9645 30.03 14.1595 30.045 14.3695 30.075C14.7145 30.12 15.0745 30.165 15.4345 30.195C16.2895 30.27 17.1595 30.315 18.0295 30.315C18.8845 30.315 19.7395 30.27 20.5795 30.195C20.8945 30.165 21.2095 30.15 21.5095 30.105C21.7495 30.075 21.9895 30.045 22.2445 30.015Z" fill="#808080"/>
</svg>
