<svg width="16" height="16" viewBox="0 0 16 16" fill="none" xmlns="http://www.w3.org/2000/svg">
<path d="M14.6673 5.03327C14.6673 5.47327 14.3073 5.83327 13.8673 5.83327H2.13398C1.69398 5.83327 1.33398 5.47327 1.33398 5.03327V5.0266C1.33398 3.49993 2.56732 2.2666 4.09398 2.2666H11.9007C13.4273 2.2666 14.6673 3.5066 14.6673 5.03327Z" fill="#FE7949"/>
<path d="M1.33398 7.6335V10.9735C1.33398 12.5002 2.56732 13.7335 4.09398 13.7335H11.9007C13.4273 13.7335 14.6673 12.4935 14.6673 10.9668V7.6335C14.6673 7.1935 14.3073 6.8335 13.8673 6.8335H2.13398C1.69398 6.8335 1.33398 7.1935 1.33398 7.6335ZM5.33398 11.5002H4.00065C3.72732 11.5002 3.50065 11.2735 3.50065 11.0002C3.50065 10.7268 3.72732 10.5002 4.00065 10.5002H5.33398C5.60732 10.5002 5.83398 10.7268 5.83398 11.0002C5.83398 11.2735 5.60732 11.5002 5.33398 11.5002ZM9.66732 11.5002H7.00065C6.72732 11.5002 6.50065 11.2735 6.50065 11.0002C6.50065 10.7268 6.72732 10.5002 7.00065 10.5002H9.66732C9.94065 10.5002 10.1673 10.7268 10.1673 11.0002C10.1673 11.2735 9.94065 11.5002 9.66732 11.5002Z" fill="#FE7949"/>
</svg>
