<svg width="24" height="32" viewBox="0 0 24 32" fill="none" xmlns="http://www.w3.org/2000/svg">
<path d="M17.4077 30.9846C26.1057 22.554 26.1057 8.82546 17.4077 0.382055C16.883 -0.127352 16.0433 -0.127352 15.5186 0.382055C14.9938 0.891461 14.9938 1.7065 15.5186 2.21591C23.167 9.6405 23.167 21.7262 15.5186 29.1508C14.9938 29.6602 14.9938 30.4752 15.5186 30.9846C15.781 31.2393 16.1221 31.3667 16.4632 31.3667C16.8043 31.3667 17.1454 31.2393 17.4077 30.9846Z" fill="white"/>
<path d="M13.0659 4.59739C12.5412 4.08798 11.7015 4.08798 11.1768 4.59739C10.652 5.10679 10.652 5.92185 11.1768 6.43125C16.4376 11.538 16.4376 19.8286 11.1768 24.9354C10.652 25.4448 10.652 26.2599 11.1768 26.7693C11.4392 27.024 11.7803 27.1513 12.1214 27.1513C12.4625 27.1513 12.8036 27.024 13.0659 26.7693C19.3631 20.6564 19.3631 10.7103 13.0659 4.59739Z" fill="white"/>
<path d="M8.91945 8.6345C8.39468 8.12509 7.55506 8.12509 7.03029 8.6345C6.50553 9.1439 6.50553 9.95895 7.03029 10.4684C9.99522 13.3465 9.99522 18.033 7.03029 20.9112C6.50553 21.4206 6.50553 22.2356 7.03029 22.745C7.29268 22.9997 7.63377 23.1271 7.97487 23.1271C8.31597 23.1271 8.65707 22.9997 8.91945 22.745C12.9208 18.8608 12.9339 12.5187 8.91945 8.6345Z" fill="white"/>
<path d="M5.30015 15.6892C5.30015 14.2756 4.1194 13.1167 2.65005 13.1167C1.18071 13.1167 0 14.2629 0 15.6892C0 17.1155 1.18071 18.2617 2.65005 18.2617C4.1194 18.2617 5.30015 17.1155 5.30015 15.6892Z" fill="white"/>
</svg>
