<svg width="16" height="16" viewBox="0 0 16 16" fill="none" xmlns="http://www.w3.org/2000/svg">
<path d="M8.00065 14.6665C4.32732 14.6665 1.33398 11.6732 1.33398 7.99984C1.33398 4.3265 4.32732 1.33317 8.00065 1.33317C11.674 1.33317 14.6673 4.3265 14.6673 7.99984C14.6673 11.6732 11.674 14.6665 8.00065 14.6665ZM7.50065 10.6665C7.50065 10.9398 7.72732 11.1665 8.00065 11.1665C8.27398 11.1665 8.50065 10.9398 8.50065 10.6665V7.33317C8.50065 7.05984 8.27398 6.83317 8.00065 6.83317C7.72732 6.83317 7.50065 7.05984 7.50065 7.33317V10.6665ZM8.61398 5.07984C8.58065 4.99317 8.53398 4.9265 8.47398 4.85984C8.40732 4.79984 8.33398 4.75317 8.25398 4.71984C8.17398 4.6865 8.08732 4.6665 8.00065 4.6665C7.91398 4.6665 7.82732 4.6865 7.74732 4.71984C7.66732 4.75317 7.59398 4.79984 7.52732 4.85984C7.46732 4.9265 7.42065 4.99317 7.38732 5.07984C7.35398 5.15984 7.33398 5.2465 7.33398 5.33317C7.33398 5.41984 7.35398 5.5065 7.38732 5.5865C7.42065 5.6665 7.46732 5.73984 7.52732 5.8065C7.59398 5.8665 7.66732 5.91317 7.74732 5.9465C7.90732 6.01317 8.09398 6.01317 8.25398 5.9465C8.33398 5.91317 8.40732 5.8665 8.47398 5.8065C8.53398 5.73984 8.58065 5.6665 8.61398 5.5865C8.64732 5.5065 8.66732 5.41984 8.66732 5.33317C8.66732 5.2465 8.64732 5.15984 8.61398 5.07984Z" fill="#FE7949"/>
</svg>
