<svg width="68" height="42" viewBox="0 0 68 42" fill="none" xmlns="http://www.w3.org/2000/svg">
<path fill-rule="evenodd" clip-rule="evenodd" d="M46.9013 41.2962C58.177 41.2962 67.3177 32.0517 67.3177 20.6481C67.3177 9.24441 58.177 -8.49213e-05 46.9013 -8.49213e-05C41.8482 -8.49213e-05 37.2239 1.85648 33.6588 4.93194C30.0938 1.85653 25.4695 0 20.4164 0C9.14075 0 0 9.24449 0 20.6482C0 32.0518 9.14075 41.2963 20.4164 41.2963C25.4695 41.2963 30.0939 39.4397 33.6589 36.3643C37.2239 39.4397 41.8482 41.2962 46.9013 41.2962Z" fill="#ED0006"/>
<path fill-rule="evenodd" clip-rule="evenodd" d="M33.6582 36.3642C38.0483 32.577 40.8321 26.9413 40.8321 20.6482C40.8321 14.355 38.0483 8.71934 33.6582 4.93208C37.2233 1.85659 41.8476 0 46.9007 0C58.1764 0 67.3172 9.24449 67.3172 20.6482C67.3172 32.0518 58.1764 41.2963 46.9007 41.2963C41.8476 41.2963 37.2233 39.4397 33.6582 36.3642Z" fill="#F9A000"/>
<path fill-rule="evenodd" clip-rule="evenodd" d="M33.6583 36.3643C38.0484 32.577 40.8322 26.9414 40.8322 20.6482C40.8322 14.355 38.0484 8.71938 33.6583 4.93213C29.2682 8.71938 26.4844 14.355 26.4844 20.6482C26.4844 26.9414 29.2682 32.577 33.6583 36.3643Z" fill="#FF5E00"/>
</svg>
