<svg width="96" height="96" viewBox="0 0 96 96" fill="none" xmlns="http://www.w3.org/2000/svg">
<path d="M8 28V84C8 87.32 11.76 89.2 14.4 87.2L21.24 82.08C22.84 80.88 25.08 81.04 26.52 82.48L33.16 89.16C34.72 90.72 37.28 90.72 38.84 89.16L45.56 82.44C46.96 81.04 49.2 80.88 50.76 82.08L57.6 87.2C60.24 89.16 64 87.28 64 84V16C64 11.6 67.6 8 72 8H28H24C12 8 8 15.16 8 24V28Z" fill="#D3D3D3"/>
<path d="M72.04 8V14C74.68 14 77.2 15.08 79.04 16.88C80.96 18.84 82 21.36 82 24V33.68C82 36.64 80.68 38 77.68 38H70V16.04C70 14.92 70.92 14 72.04 14V8ZM72.04 8C67.6 8 64 11.6 64 16.04V44H77.68C84 44 88 40 88 33.68V24C88 19.6 86.2 15.6 83.32 12.68C80.4 9.8 76.44 8.04 72.04 8C72.08 8 72.04 8 72.04 8Z" fill="#D3D3D3"/>
</svg>
