<svg width="32" height="11" viewBox="0 0 32 11" fill="none" xmlns="http://www.w3.org/2000/svg">
<path d="M20.6153 0C18.3716 0 16.3571 1.16748 16.3571 3.30986C16.3571 5.77721 19.9156 5.94571 19.9156 7.17336C19.9156 7.69091 19.3125 8.1603 18.2992 8.1603C16.8517 8.1603 15.766 7.51037 15.766 7.51037L15.3076 9.67682C15.3076 9.67682 16.5501 10.2305 18.2148 10.2305C20.6756 10.2305 22.6056 9.01485 22.6056 6.82432C22.6056 4.22458 19.035 4.05608 19.035 2.91267C19.035 2.50346 19.5296 2.05813 20.5429 2.05813C21.6888 2.05813 22.6297 2.52753 22.6297 2.52753L23.0881 0.43329C23.0761 0.43329 22.0507 0 20.6153 0ZM0.0603138 0.156466L0 0.469398C0 0.469398 0.940895 0.6379 1.79735 0.986939C2.89506 1.38412 2.96744 1.6128 3.16044 2.32292L5.17493 10.062H7.87698L12.0145 0.156466H9.32452L6.65865 6.89654L5.573 1.17951C5.47649 0.529577 4.96986 0.156466 4.34259 0.156466H0.0603138ZM13.1002 0.156466L10.9892 10.062H13.5585L15.6575 0.156466H13.1002ZM27.4066 0.156466C26.7914 0.156466 26.4657 0.481434 26.2244 1.05915L22.4609 10.062H25.1509L25.6696 8.55749H28.9506L29.2643 10.062H31.6406L29.5779 0.156466H27.4066ZM27.7564 2.84046L28.5526 6.55954H26.4174L27.7564 2.84046Z" fill="#1434CB"/>
</svg>
